<?xml version="1.0" encoding="UTF-8" standalone="no"?>
<!-- Created with Inkscape (http://www.inkscape.org/) -->

<svg
   xmlns:dc="http://purl.org/dc/elements/1.1/"
   xmlns:cc="http://creativecommons.org/ns#"
   xmlns:rdf="http://www.w3.org/1999/02/22-rdf-syntax-ns#"
   xmlns:svg="http://www.w3.org/2000/svg"
   xmlns="http://www.w3.org/2000/svg"
   xmlns:sodipodi="http://sodipodi.sourceforge.net/DTD/sodipodi-0.dtd"
   xmlns:inkscape="http://www.inkscape.org/namespaces/inkscape"
   width="115.50719mm"
   height="86.625938mm"
   viewBox="0 0 115.50719 86.625938"
   version="1.1"
   id="svg3706"
   inkscape:version="0.92.2 5c3e80d, 2017-08-06"
   sodipodi:docname="drawing.svg">
  <defs
     id="defs3700" />
  <sodipodi:namedview
     id="base"
     pagecolor="#ffffff"
     bordercolor="#666666"
     borderopacity="1.0"
     inkscape:pageopacity="0.0"
     inkscape:pageshadow="2"
     inkscape:zoom="0.5"
     inkscape:cx="86.223224"
     inkscape:cy="124.38949"
     inkscape:document-units="mm"
     inkscape:current-layer="layer1"
     showgrid="false"
     inkscape:window-width="1440"
     inkscape:window-height="855"
     inkscape:window-x="0"
     inkscape:window-y="1"
     inkscape:window-maximized="1" />
  <metadata
     id="metadata3703">
    <rdf:RDF>
      <cc:Work
         rdf:about="">
        <dc:format>image/svg+xml</dc:format>
        <dc:type
           rdf:resource="http://purl.org/dc/dcmitype/StillImage" />
        <dc:title></dc:title>
      </cc:Work>
    </rdf:RDF>
  </metadata>
  <g
     inkscape:label="Layer 1"
     inkscape:groupmode="layer"
     id="layer1"
     transform="translate(-68.967655,-73.4193)">
    <path
       id="path3716"
       d="m 128.5575,156.22481 c -1.86562,-0.63517 -3.73275,-1.23885 -5.5074,-2.10935 -1.7263,-0.88182 -3.44374,-1.77825 -5.17064,-2.65906 -1.30286,-0.76077 -2.58555,-1.56301 -3.81752,-2.43569 -1.22195,-0.985 -2.48957,-1.92527 -3.80129,-2.78783 -0.92327,-0.61303 -1.91154,-1.12001 -2.81959,-1.75598 -0.85793,-0.5327 -1.65456,-1.15551 -2.4985,-1.71693 -1.00133,-0.54449 -1.846,-1.33661 -2.81834,-1.9127 -1.47616,-1.32581 -3.256509,-2.22673 -4.968889,-3.19846 -2.05811,-1.34275 -4.04519,-2.79479 -6.042462,-4.22735 -1.93012,-1.24625 -3.64885,-2.76962 -5.42141,-4.22058 -1.46553,-1.38342 -2.98804,-2.70296 -4.49147,-4.04466 -1.00382,-0.89748 -1.98964,-1.81445 -2.9533,-2.75491 -0.72156,-0.71312 -1.44179,-1.42755 -2.15743,-2.14663 -0.79633,-0.83685 -1.46648,-1.77487 -2.19093,-2.67041 -0.67193,-0.81419 -0.99326,-1.82744 -1.47909,-2.74461 -0.60112,-1.3261 -1.04432,-2.70284 -1.38107,-4.11884 -0.34092,-1.54857 -0.70265,-3.09217 -1.06345,-4.63614 -0.26833,-1.1938 -0.54694,-2.38435 -0.78959,-3.58421 -0.12395,-0.82102 -0.17235,-1.6512 -0.20317,-2.48019 -0.0419,-0.69104 10e-4,-1.35695 0.22607,-2.01313 0.28372,-0.83251 0.78098,-1.5306 1.25919,-2.25841 0.82634,-1.30791 1.5662,-2.6615 2.30551,-4.0193 0.49314,-1.14029 1.20189,-2.14593 1.92811,-3.14322 0.63571,-0.75668 1.32062,-1.44553 2.10127,-2.05122 1.00561,-0.80171 2.03217,-1.57166 3.0628,-2.34215 2.78985,-1.89648 0.63627,-0.45278 7.75665,-4.46378 0.13416,-0.0756 0.54959,-0.27737 0.41625,-0.20035 -2.09719,1.21132 -8.43811,4.7579 -6.30886,3.60387 7.92503,-4.29526 4.45551,-3.43621 7.65886,-4.18433 0.47967,0.0208 0.80669,-0.3164 1.21441,-0.47416 0.38578,-0.14928 0.88109,-0.17468 1.28974,-0.21117 0.13885,-0.005 0.279352,0.006 0.416562,-0.0159 0.5253,-0.0841 0.29596,-0.13315 0.80752,-0.31895 0.44538,-0.16175 0.9595,-0.14601 1.42469,-0.17323 1.13258,0.0129 2.23192,-0.045 3.34781,-0.2199 1.30203,-0.20258 2.614269,-0.25319 3.928519,-0.29909 1.36691,-0.0215 2.73394,-0.0283 4.10099,-0.0214 1.32537,-0.0559 2.62525,0.002 3.93498,0.19265 0.67113,-0.003 1.24728,0.32033 1.86591,0.51251 0.62871,0.19531 1.19751,0.31029 1.80128,0.59295 0.54069,0.0427 0.95562,0.38666 1.4274,0.58755 0.46694,0.19884 0.96569,0.30002 1.43653,0.51829 0.4942,0.27584 1.05551,0.40273 1.56612,0.61962 0.47877,0.20336 0.92336,0.53559 1.39765,0.76005 0.95074,0.72147 1.88801,1.45525 2.81209,2.21243 0.93596,0.86646 1.79793,1.83172 2.64472,2.79116 0.82058,1.32923 1.79454,2.5646 2.76579,3.79167 0.93469,1.06867 1.64377,2.31363 2.52604,3.42009 0.8895,0.92309 1.55441,2.02354 2.3448,3.02866 0.65038,1.03298 1.27976,2.06594 1.99473,3.05616 0.34794,0.66313 0.8649,1.18481 1.22772,1.832 0.24325,0.16075 0.42383,0.55421 0.5472,0.83021 0.0597,0.10127 0.0812,0.22238 0.14252,0.32273 0.0227,0.0371 0.10992,-0.12929 0.0714,-0.10907 -2.25206,1.18343 -4.50259,2.36975 -6.75388,3.55463 0.29001,-0.79245 0.25023,-1.67429 0.0938,-2.49126 -0.10115,-0.738 -0.42534,-1.37579 -0.74428,-2.03504 -0.23887,-0.74769 -0.25536,-1.53614 -0.25844,-2.31378 0.0304,-1.6676 0.96001,-3.17186 1.63844,-4.64822 1.0343,-2.27659 2.02102,-4.57358 3.0551,-6.85037 0.67267,-1.8067 1.80074,-3.30848 3.1189,-4.68471 1.17579,-1.14571 2.46516,-2.17885 3.87508,-3.02046 2.98355,-1.89502 0.95797,-0.62127 7.94513,-4.63647 0.0962,-0.0553 1.12029,-0.58368 1.20698,-0.62014 0.37062,-0.15589 0.75999,-0.26368 1.1333,-0.413 1.19941,-0.28839 2.43808,-0.52395 3.66982,-0.596 1.50444,0.004 3.0087,0.047 4.51287,0.0769 1.94949,0.0235 3.899,0.031 5.84859,0.0305 1.93119,-0.005 3.85979,0.63496 5.65187,1.3244 1.68929,0.73947 3.2139,1.75695 4.62411,2.93568 1.30437,1.02099 2.2439,2.37865 3.29035,3.63759 1.26875,1.46825 1.83118,3.32795 2.44092,5.13217 0.84627,2.16216 1.21946,4.45633 1.77089,6.70062 0.50658,1.97988 0.95877,3.96987 1.46269,5.95098 0.35092,1.63285 0.39894,3.30117 0.44555,4.96348 0.0125,1.5295 0.0171,3.05889 7.9e-4,4.58836 0.0987,1.54297 -0.14647,3.02932 -0.70479,4.46367 -0.78539,1.73615 -1.5767,3.47028 -2.43816,5.1702 -1.05397,2.02703 -2.09498,4.05261 -3.41514,5.92039 -1.49002,2.09454 -3.18827,4.02572 -4.9499,5.89324 -1.42484,1.60893 -3.09625,2.96214 -4.64499,4.44401 -1.58572,1.33487 -3.35388,2.43972 -5.06105,3.6131 -18.67431,10.7853 -3.00867,1.73071 -1.78913,1.04913 0.29913,-0.16717 -0.56045,0.39585 -0.85581,0.5696 -2.49895,1.47013 -5.04663,2.85757 -7.52559,4.36117 -2.21483,1.34339 21.27567,-12.27278 -1.65486,1.00081 -1.36819,0.63719 -0.2398,0.0891 -1.58253,0.80564 -0.21723,0.11592 -0.87097,0.45925 -0.65801,0.33566 13.1356,-7.62269 2.43625,-1.04745 -1.79624,0.91421 0.30432,-0.40962 -2.13327,1.07671 -1.51563,0.72543 10.68328,-6.07611 7.80717,-4.46754 5.45287,-3.059 -0.73076,0.43315 -1.39641,0.96094 -2.02149,1.53383 -2.08514,2.14357 -5.21688,3.20667 -7.65748,4.63985 -2.14203,1.25786 4.29749,-2.49274 6.45185,-3.72935 0.19795,-0.11362 -0.37099,0.26687 -0.54453,0.4151 -0.52662,0.38583 -0.97651,0.8727 -1.43953,1.33239 -2.51977,2.95395 -2.71693,2.27304 -8.23922,5.52811 -2.44042,1.20512 -1.72307,0.85779 6.22652,-3.61839 0.0983,-0.0554 -0.15756,0.16249 -0.24567,0.23304 -0.24237,0.19405 -0.41802,0.22684 -0.62696,0.48142 -16.06519,9.37925 -2.77902,1.61511 -0.42305,0.26769 0.0796,-0.0455 -0.13482,0.12522 -0.21024,0.17735 -0.16939,0.11709 -0.28581,0.22828 -0.48455,0.29672 -0.20973,0.41951 -0.55027,0.54369 -0.7384,0.9669 -2.16261,2.01845 -4.65065,3.85272 -7.6882,4.61839 -0.0881,0.0912 -0.20256,-0.079 -0.28192,-0.0278 -0.0531,0.0342 -0.0974,0.21543 -0.0423,0.18466 9.08432,-5.06867 8.50243,-5.30718 6.37039,-3.67338 -22.89952,13.52477 4.27325,-2.7659 -0.49801,0.35488 -0.0888,0.058 -0.085,0.21135 -0.17669,0.26455 -2.32212,1.34652 -4.68426,2.6228 -7.02639,3.93421 -0.28473,0.0551 -0.5857,-0.0255 -0.87733,-0.0426 -0.2449,-0.0106 -0.49015,-0.0103 -0.73525,-0.009 -0.0776,-0.0656 -0.15523,-0.13119 -0.23286,-0.19679 0,0 6.58384,-4.38106 6.58384,-4.38106 v 0 c 0.0203,-0.0228 0.0407,-0.0456 0.061,-0.0685 0.24799,0.008 0.49586,0.0177 0.7438,0.0266 0.25605,0.004 0.47977,-0.0349 0.70899,-0.14978 -2.1935,1.26776 -4.40256,2.50899 -6.58051,3.8033 -0.0448,0.0266 0.11096,0.0419 0.15547,0.0149 0.12918,-0.0784 0.059,-0.34587 0.22517,-0.39339 0.10259,-0.0615 17.85247,-10.34329 0.3426,-0.10664 1.62938,-2.24262 4.68353,-2.97019 7.08873,-4.34832 0.0645,-0.037 0.14646,0.0488 0.2199,0.0372 0.0678,-0.0107 0.0756,-0.13508 0.15594,-0.13454 2.18885,-1.51529 0.54892,-0.37588 -6.50735,3.75022 -0.13184,0.0771 0.31017,-0.0669 0.42758,-0.16459 0.0299,-0.0249 0.18489,-0.27632 0.2294,-0.34753 0.423,-0.0189 0.17095,-0.19026 0.36485,-0.48104 0.0305,-0.0457 0.11866,0.0192 0.16434,-0.0113 0.67755,-0.45197 -0.57861,0.11387 0.31334,-0.25368 0.0831,-0.38996 0.25254,-0.49707 0.59975,-0.70227 2.31005,-1.36526 4.74418,-2.54114 6.92468,-4.10502 2.04169,-1.46433 -4.33772,2.53677 -6.50659,3.80515 0.43514,-0.15695 0.24731,-0.36495 0.6097,-0.54055 2.59022,-1.25512 4.97796,-2.95664 7.48716,-4.40897 -2.12865,1.25973 -4.25806,2.51818 -6.38596,3.77917 -0.0991,0.0587 0.21913,-0.0897 0.2994,-0.17226 0.66284,-0.68166 -0.21573,-0.0538 0.43472,-0.58689 0.50344,-0.41265 0.1755,0.0448 0.51632,-0.56609 0.44479,-0.51582 0.95733,-0.91942 1.37375,-1.4653 0.1947,-0.12038 0.33676,-0.31513 0.53286,-0.43322 2.31423,-1.39361 4.74138,-2.60412 6.98982,-4.10157 2.04153,-1.35965 -4.25489,2.44193 -6.368,3.68744 -0.21631,0.1275 0.95504,-0.39121 0.65974,-0.36356 0.56476,-0.64782 1.23707,-1.24434 1.9642,-1.69319 0.99837,-0.71949 -0.24515,0.14097 0.85008,-0.50032 3.05542,-1.78903 5.53509,-3.62467 8.64635,-4.8929 0.18984,-0.0897 0.75002,-0.37631 0.56952,-0.26906 -2.02537,1.20342 -8.17006,4.69531 -6.10635,3.55889 3.18426,-1.75347 6.23541,-3.73675 9.48923,-5.35954 -1.93818,1.12566 -7.73937,4.52533 -5.81455,3.37697 2.47392,-1.47597 4.96541,-2.92246 7.46196,-4.35982 1.91274,-1.10125 -3.78233,2.27746 -5.71052,3.35144 -0.30426,0.16947 0.53168,-0.45517 0.83083,-0.63351 2.48829,-1.48335 4.98776,-2.94967 7.52499,-4.34767 1.93511,-1.06624 -3.81208,2.23473 -5.71812,3.35209 1.6963,-1.17383 3.41289,-2.31384 5.10124,-3.49772 0.484,-0.45904 0.93456,-0.95335 1.43051,-1.39945 1.10317,-0.9923 2.31922,-1.87333 3.27489,-3.02542 1.75581,-1.85646 3.50701,-3.72105 4.99565,-5.80613 0.52894,-0.70399 0.98044,-1.26 1.42318,-2.01998 0.71355,-1.22484 1.26826,-2.54804 1.99297,-3.76818 0.86353,-1.67463 1.63418,-3.38942 2.43308,-5.09528 0.032,-0.0747 0.51822,-1.19372 0.55681,-1.33607 0.25212,-0.92992 0.2937,-1.89904 0.27592,-2.85653 -0.008,-1.52388 0.017,-3.04769 0.001,-4.5715 -0.0118,-1.61205 -0.0556,-3.23221 -0.35274,-4.8213 -0.44622,-1.99655 -0.9316,-3.9797 -1.39901,-5.97091 -0.59117,-2.21341 -0.88752,-4.50466 -1.77133,-6.63482 -0.57752,-1.7132 -1.12277,-3.48184 -2.33313,-4.86816 -1.00624,-1.23067 -1.95198,-2.51891 -3.20998,-3.51449 -1.35237,-1.11369 -2.83039,-2.05438 -4.45583,-2.72337 -1.77911,-0.59537 -3.6011,-1.20116 -5.50236,-1.10349 -1.95325,-0.007 -3.90652,-0.008 -5.85964,-0.0335 -1.50299,-0.0101 -3.01015,-0.0814 -4.51056,0.0288 -1.19624,0.16851 -2.41277,0.3105 -3.5394,0.77257 -0.58457,0.23051 -1.13299,0.48904 -1.68759,0.78573 -0.19153,0.10246 -0.7597,0.42144 -0.57246,0.31133 6.48819,-3.81545 7.92792,-4.87954 5.39746,-3.06387 -0.46849,0.27286 -0.96784,0.49332 -1.4223,0.78896 -0.90234,0.58698 -1.65165,1.41089 -2.52755,2.03447 -1.30726,1.34593 -2.63043,2.66768 -3.29827,4.47574 -1.03777,2.27042 -2.03079,4.5561 -3.03806,6.83961 -0.60161,1.35687 -1.4983,2.80546 -1.65159,4.28802 -0.004,0.67266 -0.0262,1.35389 0.10737,2.01681 0.29658,0.72751 0.72639,1.39682 0.80562,2.20199 0.20107,0.9579 0.25714,1.91189 0.13355,2.8878 -4.95047,2.9352 -5.86721,6.42864 -7.53119,3.38104 -0.12496,-0.27014 -0.28127,-0.53701 -0.4916,-0.76303 -0.27774,-0.6338 -0.83631,-1.1026 -1.11136,-1.74881 -0.72015,-0.97381 -1.28846,-2.03636 -1.94749,-3.05029 -0.79706,-1.00447 -1.50082,-2.07948 -2.36981,-3.02418 -0.84672,-1.1297 -1.57449,-2.35165 -2.48834,-3.43235 -0.96028,-1.21899 -1.92514,-2.44019 -2.77125,-3.73793 -0.82283,-0.92964 -1.65616,-1.86136 -2.58824,-2.68245 -0.87328,-0.72852 -1.77871,-1.43311 -2.73107,-2.05267 -0.95424,-0.50117 -1.9231,-0.95348 -2.92869,-1.34583 -0.955,-0.36914 -1.90421,-0.74252 -2.85972,-1.11009 -1.13402,-0.43403 -2.32758,-0.76842 -3.53008,-0.9377 -1.28759,-0.14493 -2.57747,-0.11135 -3.871679,-0.11455 -1.36445,0.008 -2.72944,-10e-4 -4.09315,0.0514 -1.30172,0.0514 -2.59887,0.17062 -3.886792,0.36998 -1.12354,0.14511 -2.25421,0.0924 -3.38059,0.20842 -0.89368,0.13835 -1.7296,0.50239 -2.64094,0.55209 -0.82749,0.19228 -1.58462,0.58123 -2.41371,0.77593 -0.14403,0.0628 -0.56725,0.26855 -0.43207,0.18845 2.0862,-1.2361 8.40959,-4.83255 6.28802,-3.65819 -23.06295,12.76625 3.266772,-1.40633 -1.90796,1.02582 -1.05313,0.73288 -2.10452,1.46509 -3.0354,2.35473 -0.83832,0.49407 -1.55094,1.11501 -2.16122,1.87505 -0.7047,0.61707 -0.008,-0.0534 -0.65235,0.79549 -0.52775,0.69533 -1.10376,1.36181 -1.41533,2.20251 -0.72891,1.36112 -1.44079,2.71542 -2.2405,4.03585 -0.41933,0.73956 -1.04044,1.34783 -1.24657,2.1822 -0.38407,0.51175 -0.42638,1.04119 -0.38343,1.66679 -0.004,0.79562 0.0128,1.59354 0.11607,2.38347 0.18644,1.20611 0.4837,2.38302 0.73524,3.57487 0.33016,1.55 0.70121,3.09111 1.05255,4.63631 0.30066,1.35356 0.72991,2.65807 1.31065,3.91504 0.48226,0.86878 0.78053,1.84184 1.41535,2.62715 0.68634,0.88938 1.35359,1.79043 2.1512,2.58784 0.71543,0.71441 1.42483,1.43489 2.14475,2.14479 0.94691,0.93371 1.8959,1.8658 2.88024,2.76038 1.48201,1.34406 2.97364,2.67709 4.441712,4.036 1.75053,1.45181 3.47595,2.93668 5.38204,4.18735 1.96462,1.42979 3.933769,2.86053 5.992059,4.15344 1.75054,0.96416 3.51436,1.91717 5.07559,3.1786 0.9563,0.63614 1.87524,1.32527 2.85877,1.92384 0.8232,0.58472 1.64955,1.16495 2.49829,1.7119 0.91876,0.60538 1.88073,1.14225 2.77819,1.78066 1.28903,0.89826 2.56571,1.81616 3.79356,2.79681 1.23659,0.81553 2.4724,1.63798 3.76523,2.36116 1.69479,0.91302 3.40765,1.791 5.12741,2.65553 1.76176,0.83075 3.61396,1.42232 5.49353,1.92723 0,0 -6.45557,4.45279 -6.45557,4.45279 z"
       inkscape:connector-curvature="0"
       style="stroke-width:0.26458332" />
  </g>
</svg>
