<?xml version="1.0" standalone="no"?>
<!DOCTYPE svg PUBLIC "-//W3C//DTD SVG 20010904//EN"
 "http://www.w3.org/TR/2001/REC-SVG-20010904/DTD/svg10.dtd">
<svg version="1.0" xmlns="http://www.w3.org/2000/svg"
 width="118.000000pt" height="121.000000pt" viewBox="0 0 118.000000 121.000000"
 preserveAspectRatio="xMidYMid meet">
<metadata>
Created by potrace 1.16, written by Peter Selinger 2001-2019
</metadata>
<g transform="translate(0.000000,121.000000) scale(0.100000,-0.100000)"
fill="#000000" stroke="none">
<path d="M659 1206 c-2 -3 -61 -6 -130 -7 -145 -1 -146 -2 -145 -91 l2 -56
-176 -2 c-96 -1 -181 -2 -187 -3 -9 0 -10 -4 -2 -13 7 -8 6 -14 -2 -20 -8 -5
-9 -3 -4 6 5 8 4 11 -3 7 -6 -5 -11 -93 -11 -257 l-2 -250 26 0 25 0 0 232 c0
127 2 229 4 227 2 -2 6 -146 9 -320 l6 -317 29 -85 c19 -54 27 -90 21 -98 -5
-8 -8 -48 -7 -89 l1 -75 8 65 c4 36 11 81 14 100 5 25 -1 54 -18 100 -24 62
-25 79 -32 378 l-8 312 517 0 516 0 0 -165 c0 -91 -3 -165 -7 -165 -5 0 -7
-62 -5 -138 3 -133 2 -141 -27 -217 -31 -79 -39 -121 -22 -111 4 3 9 -29 10
-72 1 -42 4 -79 7 -82 3 -2 4 42 3 100 -2 88 1 114 20 159 20 50 22 75 28 385
3 182 7 333 9 335 2 2 4 -100 4 -227 l0 -232 25 0 26 0 -2 265 c0 145 -4 264
-8 263 -3 0 -124 0 -268 1 -258 1 -263 1 -263 22 0 11 -5 17 -10 14 -6 -3 -8
-18 -5 -33 l5 -27 -11 25 c-16 38 -21 66 -8 53 7 -7 23 -7 47 -1 20 4 46 11
56 13 26 6 36 23 36 64 0 42 -8 36 -14 -10 -2 -19 -9 -33 -16 -31 -6 1 -8 -3
-4 -9 4 -8 3 -9 -5 -5 -8 5 -7 13 4 29 23 33 19 57 -10 57 -17 0 -25 -6 -26
-17 0 -17 -1 -17 -8 0 -3 10 -9 16 -12 13z"/>
<path d="M260 710 c20 -12 2 -30 -31 -30 -18 0 -33 -7 -41 -20 -7 -11 -22 -20
-34 -20 -46 0 -54 -26 -54 -173 0 -122 3 -144 26 -204 18 -49 24 -78 19 -103
-4 -19 -9 -63 -12 -97 l-5 -63 31 0 c30 0 31 1 33 48 l1 47 7 -50 7 -50 1 43
2 42 45 0 c42 0 45 -2 46 -27 l1 -28 8 30 8 30 1 -27 c1 -23 6 -28 25 -28 19
0 26 6 29 28 3 21 4 19 4 -8 -1 -34 -2 -36 -31 -32 -40 6 -31 -3 11 -11 l32
-6 4 57 3 57 2 -57 c2 -55 3 -58 27 -58 24 0 25 3 25 57 0 31 -5 71 -12 89
-10 29 -9 35 16 64 52 63 66 103 66 193 0 46 -5 88 -11 94 -8 8 -7 13 2 18 7
5 10 4 5 -3 -3 -6 -2 -13 4 -17 16 -10 12 -172 -5 -206 -9 -16 -13 -34 -10
-40 4 -5 1 -8 -7 -7 -7 2 -13 -5 -13 -14 0 -19 -12 -33 -28 -33 -7 0 -14 -11
-15 -24 -2 -13 0 -21 5 -18 5 3 10 -29 12 -71 3 -102 11 -106 11 -6 0 51 -5
85 -12 93 -11 10 -10 12 0 9 7 -2 29 23 49 55 35 55 36 61 36 150 0 180 -1
187 -28 187 -19 0 -25 -5 -25 -22 0 -32 -9 -17 -14 23 -6 57 -9 56 -16 -1 l-7
-55 -1 61 c-2 68 -21 102 -60 107 -12 2 -28 9 -35 16 -10 11 -7 12 13 7 17 -5
20 -4 10 2 -8 5 -42 10 -74 10 -33 0 -53 -4 -46 -8z m68 -139 c2 -90 5 -102
20 -99 14 3 17 17 20 86 2 61 6 82 16 82 22 0 26 -24 26 -146 0 -93 3 -114 14
-114 10 0 16 14 18 42 2 31 8 44 21 46 15 3 17 -5 17 -62 0 -77 -7 -97 -53
-158 -19 -25 -37 -57 -39 -70 -3 -22 -7 -23 -95 -26 -87 -3 -93 -1 -93 17 0
11 -14 55 -30 99 -29 75 -30 85 -28 208 3 107 6 129 18 129 12 0 16 -16 18
-68 2 -58 6 -68 20 -65 14 3 17 17 20 86 2 63 6 82 17 82 11 0 15 -19 17 -82
3 -70 6 -83 21 -86 15 -3 17 7 17 96 0 54 3 102 7 106 20 19 28 -9 31 -103z"/>
<path d="M829 701 c-7 -10 -18 -17 -24 -15 -6 3 -23 -5 -38 -16 -24 -19 -27
-28 -29 -93 -2 -70 -2 -71 -5 -14 -2 31 -9 57 -14 57 -6 0 -7 -4 -4 -10 3 -5
2 -10 -3 -10 -5 0 -9 -14 -10 -31 -1 -35 -12 -54 -12 -21 0 17 -6 22 -25 22
-20 0 -25 -5 -25 -24 0 -13 6 -27 13 -29 10 -4 10 -6 0 -6 -10 -1 -13 -29 -13
-104 0 -90 3 -109 25 -154 15 -28 34 -57 43 -65 16 -12 16 -11 2 7 -14 18 -13
19 1 8 9 -7 18 -11 21 -8 3 3 11 -3 19 -12 13 -16 12 -17 -3 -5 -24 19 -29 4
-36 -94 -3 -59 -1 -84 7 -84 7 0 11 24 11 69 0 54 4 71 18 82 14 11 15 11 5
-1 -8 -8 -13 -42 -13 -82 0 -66 1 -68 25 -68 24 0 25 3 26 58 0 46 2 53 10 33
5 -13 7 -38 3 -56 -6 -31 -5 -32 28 -26 l33 5 -30 7 c-30 7 -30 7 -3 8 21 1
28 7 31 29 l4 27 2 -27 c1 -35 21 -37 21 -3 0 23 4 25 45 25 l45 0 2 -42 c1
-38 2 -36 8 17 l7 60 1 -57 c2 -55 3 -58 27 -58 24 0 25 2 25 69 0 39 -4 73
-10 76 -16 10 -12 36 20 118 28 72 30 88 30 208 0 116 -2 131 -20 149 -11 11
-31 20 -44 20 -15 0 -26 7 -29 20 -4 15 -14 20 -42 20 -31 0 -37 3 -33 18 8
28 -76 31 -93 3z m63 -123 c3 -89 5 -103 21 -106 15 -3 17 6 17 82 0 79 2 86
20 86 18 0 20 -7 20 -86 0 -76 2 -85 18 -82 13 2 18 17 22 66 9 110 25 70 28
-71 2 -122 0 -139 -23 -200 -14 -37 -25 -79 -25 -92 0 -25 -1 -25 -95 -25 -89
0 -95 1 -95 20 0 12 -18 44 -39 73 -46 61 -64 115 -59 177 2 33 8 46 21 48 14
3 17 -4 17 -42 0 -39 3 -46 20 -46 19 0 20 7 20 131 0 119 2 130 18 127 14 -3
17 -17 20 -86 2 -72 5 -83 20 -80 14 3 17 18 20 106 2 80 6 102 17 102 11 0
15 -22 17 -102z"/>
</g>
</svg>
