<svg xmlns="http://www.w3.org/2000/svg" viewBox="0 0 500 500">
  <path fill="#0ff" stroke-width= "0.5" stroke="#000" d="M191 300l-20 10.7c-3.67 2.37-8.5 6.16-11.32 9.47-8.91 10.46-6.63 23.39 6.32 28.95 3.83 1.65 5.92 1.83 10 1.88 16.72.2 48.43-3.86 42.24-28-2.22-8.64-7.61-14.6-12.24-22 9.25-3.67 27.04-7.54 37-8-1.97-5.46-6.27-3.79-11-3.13l-16 2.78-12 2.84c-5.36.63-8.95-2.87-13-5.86l-20-12.78c-20.78-11.93-51.91-29.43-70-43.85-9.39-7.49-20.9-18.43-24.9-30-7.94-22.93 17.94-47.05 34.9-58.48 28.84-19.44 62.21-29.76 96-36.52 11.17-2.23 35.25-5.84 46-4.42l17 2.32c15.43 3.77 31.05 14.22 31.18 31.68.08 11.2-4.78 19.74-11.42 28.42-3.31 4.33-7.43 8.06-9.76 13 7.74 1.16 10.66-3.52 15.25-9 7.65-9.15 13.94-18.71 14.66-31 1.71-29.5-34.62-39.72-57.91-40-48.74-.57-113.36 16.65-153 45.29C79.58 158.33 57.65 182.3 68.46 208c4.77 11.32 17.8 23.12 27.54 30.37 19.84 14.77 41.52 27.13 63 39.35 9.43 5.36 25.3 14.17 32 22.28zm103-21l10.12-32c.75-2.85 3.25-10.4-2.17-10.26-3.2.09-6.11 4.01-7.95 6.26-4.57 5.61-10.71 14.87-16 19 5.91-13.73 15.98-33.01 15.25-48-.74-15.2-9.23-17.02-22.25-17-24.83.04-61.43 20.22-79 37.04-7.94 7.6-18.34 19.07-15 30.96 3.01-3.92 3.83-12.23 11.52-22 13.18-16.77 42.19-33.9 62.48-40.67 13.5-4.5 36.4-9.77 37.79 11.67.46 7.06-4.8 21.32-7.64 28-7.65 17.95-17.03 35.09-26.73 52-3.97 6.93-11.01 17.48-12.42 25l3.68-1.02L258.72 300l24.86-35L299 246c-2.91 12.74-10.89 28.48-11 41 2.48-.2 3.78-.17 5.99-1.6 2.8-1.81 15.53-17.54 18.96-21.4 18.59-20.93 36.1-40.17 59.05-56.57 6.84-4.89 14.5-9.88 22-13.67 2.5-1.27 6.99-4.04 9.76-2.63 3.65 1.84 2.15 6.84 1.35 9.87-2.34 8.95-7.23 17.72-11.36 26-12.55 25.17-25.26 49.85-39.75 74l-12.2 20c-2.57 4.29-5.03 6.87-4.8 12 5.43-4.6 16.19-22.99 20.69-30 15.91-24.74 29.42-50.72 42.56-77 3.15-6.31 9.76-20.35 10.57-27 .44-3.66.65-8.84-2.97-10.83-3.11-1.99-8.64-1.05-11.85 0-7.32 2.91-16.42 8.77-23 13.16-32.44 21.63-53.75 48.58-79 77.67zm-100 26.45c1.76.02 2.16-.3 3.96.59 5.53 2.73 15.31 19.77 10.59 28.94-4.23 8.21-19.05 11.23-27.55 11.84-13.18.93-22.59-9.39-15.47-21.82 4.11-7.17 20.45-17.37 28.47-19.55z"/>
</svg>
