<svg xmlns="http://www.w3.org/2000/svg" xmlns:xlink="http://www.w3.org/1999/xlink" width="810" viewBox="0 0 810 850" height="810" version="1.0"><defs><clipPath id="d"><path d="M 87 83 L 640 83 L 640 558 L 87 558 Z M 87 83"/></clipPath><clipPath id="e"><path d="M 0.175781 170.90625 L 469.824219 0.808594 L 639.917969 470.453125 L 170.273438 640.550781 Z M 0.175781 170.90625"/></clipPath><clipPath id="f"><path d="M 0.175781 170.90625 L 469.824219 0.808594 L 639.917969 470.453125 L 170.273438 640.550781 Z M 0.175781 170.90625"/></clipPath><clipPath id="c"><path d="M0 0H642V642H0z"/></clipPath><filter x="0%" y="0%" width="100%" xmlns:xlink="http://www.w3.org/1999/xlink" xlink:type="simple" xlink:actuate="onLoad" height="100%" id="a" xlink:show="other"><feColorMatrix values="0 0 0 0 1 0 0 0 0 1 0 0 0 0 1 0 0 0 1 0" color-interpolation-filters="sRGB"/></filter><mask id="b"><g filter="url(#a)"><path fill-opacity=".208" d="M-81 -81H891V891H-81z"/></g></mask></defs><g mask="url(#b)"><g><g clip-path="url(#c)" transform="translate(89 101)"><g clip-path="url(#d)"><g clip-path="url(#e)"><g clip-path="url(#f)"><path fill="#85DBD9" d="M 550.953125 228.6875 C 550.542969 228.667969 550.164062 228.765625 549.8125 228.976562 C 549.460938 229.1875 549.195312 229.480469 549.023438 229.851562 L 502.777344 328.613281 L 449.570312 181.699219 C 449.429688 181.3125 449.191406 181 448.859375 180.761719 C 448.53125 180.519531 448.160156 180.390625 447.75 180.371094 C 447.339844 180.351562 446.960938 180.449219 446.609375 180.660156 C 446.257812 180.871094 445.996094 181.164062 445.820312 181.535156 L 399.574219 280.296875 L 346.367188 133.382812 C 346.207031 133.027344 345.964844 132.742188 345.640625 132.527344 C 345.316406 132.3125 344.960938 132.199219 344.574219 132.1875 C 344.183594 132.175781 343.820312 132.269531 343.488281 132.46875 C 343.152344 132.664062 342.894531 132.9375 342.714844 133.28125 L 296.472656 232.042969 L 243.261719 85.128906 C 243.117188 84.753906 242.882812 84.449219 242.558594 84.210938 C 242.230469 83.976562 241.867188 83.847656 241.464844 83.828125 C 241.0625 83.808594 240.6875 83.902344 240.339844 84.105469 C 239.992188 84.308594 239.730469 84.59375 239.550781 84.953125 L 87.511719 409.832031 C 87.347656 410.199219 87.300781 410.582031 87.367188 410.980469 C 87.429688 411.378906 87.601562 411.722656 87.871094 412.019531 C 88.144531 412.316406 88.476562 412.515625 88.867188 412.613281 C 89.257812 412.714844 89.640625 412.699219 90.023438 412.570312 L 236.839844 359.394531 L 190.691406 458.121094 C 190.515625 458.492188 190.460938 458.882812 190.519531 459.289062 C 190.582031 459.695312 190.75 460.050781 191.027344 460.351562 C 191.304688 460.65625 191.640625 460.855469 192.039062 460.953125 C 192.4375 461.050781 192.832031 461.027344 193.214844 460.886719 L 340.015625 407.71875 L 293.828125 506.460938 C 293.65625 506.832031 293.601562 507.21875 293.664062 507.625 C 293.726562 508.027344 293.894531 508.382812 294.167969 508.683594 C 294.445312 508.984375 294.78125 509.1875 295.179688 509.285156 C 295.574219 509.382812 295.964844 509.363281 296.351562 509.226562 L 443.179688 456.050781 L 396.992188 554.789062 C 396.820312 555.160156 396.765625 555.546875 396.828125 555.953125 C 396.890625 556.355469 397.058594 556.710938 397.335938 557.011719 C 397.609375 557.316406 397.945312 557.515625 398.34375 557.613281 C 398.738281 557.714844 399.132812 557.695312 399.515625 557.554688 L 637.953125 471.199219 C 638.207031 471.105469 638.433594 470.96875 638.632812 470.789062 C 638.832031 470.605469 638.988281 470.394531 639.101562 470.152344 C 639.214844 469.90625 639.277344 469.652344 639.292969 469.382812 C 639.304688 469.113281 639.261719 468.851562 639.171875 468.597656 L 552.792969 230.101562 C 552.664062 229.699219 552.433594 229.367188 552.097656 229.105469 C 551.757812 228.847656 551.378906 228.707031 550.953125 228.6875 Z M 93.25 407.085938 L 241.152344 91.105469 L 294.074219 237.226562 L 239.273438 354.195312 Z M 296.003906 242.550781 L 325.171875 323.085938 L 244.675781 352.242188 Z M 196.417969 455.421875 L 242.242188 357.4375 L 328.460938 326.210938 C 328.714844 326.121094 328.941406 325.984375 329.140625 325.800781 C 329.339844 325.621094 329.496094 325.40625 329.609375 325.164062 C 329.722656 324.921875 329.785156 324.664062 329.796875 324.394531 C 329.808594 324.125 329.769531 323.863281 329.679688 323.613281 L 298.453125 237.390625 L 344.308594 139.40625 L 397.21875 285.5 L 342.480469 402.519531 Z M 399.171875 290.890625 L 428.335938 371.414062 L 347.839844 400.570312 Z M 299.570312 503.722656 L 345.410156 405.777344 L 431.628906 374.550781 C 431.882812 374.457031 432.109375 374.320312 432.308594 374.140625 C 432.503906 373.957031 432.664062 373.746094 432.777344 373.503906 C 432.890625 373.257812 432.953125 373.003906 432.964844 372.734375 C 432.976562 372.464844 432.9375 372.203125 432.847656 371.949219 L 401.605469 285.691406 L 447.457031 187.699219 L 500.375 333.800781 L 445.636719 450.820312 Z M 502.328125 339.199219 L 531.492188 419.726562 L 450.996094 448.878906 Z M 634.648438 468.027344 L 402.753906 552.011719 L 448.589844 454.066406 L 534.785156 422.851562 C 535.035156 422.757812 535.261719 422.621094 535.460938 422.441406 C 535.660156 422.257812 535.816406 422.046875 535.929688 421.800781 C 536.042969 421.558594 536.109375 421.300781 536.121094 421.035156 C 536.132812 420.765625 536.09375 420.503906 536 420.25 L 504.761719 334 L 550.625 236.035156 Z M 634.648438 468.027344"/></g></g></g></g></g></g></svg>