<svg xmlns="http://www.w3.org/2000/svg" width="810" viewBox="10 350 575 100" height="810" version="1.0">
  <defs>
    <clipPath id="a">
      <path d="M338 365.586h70v78.75h-70Zm0 0"/>
    </clipPath>
    <clipPath id="b">
      <path d="M431.012 401H474v43.336h-42.988Zm0 0"/>
    </clipPath>
    <clipPath id="c">
      <path d="M535 401h43.762v43.336H535Zm0 0"/>
    </clipPath>
    <clipPath id="d">
      <path d="M431.012 365.586H560V432H431.012Zm0 0"/>
    </clipPath>
    <clipPath id="e">
      <path d="M230.95 415H239v24h-8.05Zm0 0"/>
    </clipPath>
    <clipPath id="f">
      <path d="M301 415h8.7v24H301Zm0 0"/>
    </clipPath>
    <clipPath id="g">
      <path d="M241 407h14v37.363h-14Zm0 0"/>
    </clipPath>
    <clipPath id="h">
      <path d="M286 407h14v37.363h-14Zm0 0"/>
    </clipPath>
  </defs>
  <g clip-path="url(#a)">
    <path fill="#F0EBE1" d="M406.36 381.055c-2.141-.621-6.403-2.118-8.192-2.84-2.711-1.094-2.047-3.203-3.34-4.086-1.289-.883-4.86-2.422-7.137-1.84-.597-2.473-1.062-6.703-1.062-6.703s-5.2 5.309-4.89 9.086c-3.11.66-2.716 10.2-6.087 18.422-1.812 4.418-31.21 22.445-28.3 41.652-1.786.102-3.704.133-5.29-2.383-2.351-3.73-1.718-10.465-1.718-10.465s-3.473 6.489-1.004 12.442c1.93 4.648 6.855 4.945 8.144 5.441-2.082 2.649-.464 3.73 2.711 4.14 3.176.411 20.235.188 23.606 0 3.37-.187.308-4.218-2.578-4.382-2.891-.168-6.942-.398-6.942-.398s8.824.82 8.043-6.297c-.676-6.156-7.207-9.895-7.308-10.067.566.02 5.226 2.715 7.804 8.477 1.368 2.547 12.246-7.399 12.246-7.399s3.082 20.297 5.266 20.297h7.402c.762 0 1.344-.226.606-1.96-.27-.622-4.223-.782-4.57-1.614-1.332-3.195-.66-8.48-2.512-15.215-.395-3.02 2.21-13.836 3.703-20.554 1.101-4.98-1.957-15.13-1.324-15.633 1.488-1.18 6.031.316 10.976-1.852 2.117-.93 2.145-3.57 2.512-3.844.945-.699-.223-2.27-.766-2.425"/>
  </g>
  <path fill="#F0EBE1" d="M465.602 418.813h8.25a21.537 21.537 0 0 0-7.036-12.31l-4.355 6.95a13.538 13.538 0 0 1 3.14 5.36Zm0 0"/>
  <g clip-path="url(#b)">
    <path fill="#F0EBE1" d="M452.668 436.316c-7.461 0-13.527-6.074-13.527-13.543 0-7.464 6.066-13.539 13.527-13.539 1.437 0 2.824.23 4.129.649l4.351-6.95a21.509 21.509 0 0 0-8.48-1.734c-11.906 0-21.555 9.66-21.555 21.574 0 11.918 9.649 21.579 21.555 21.579 10.832 0 19.797-8.004 21.324-18.426h-8.172c-1.425 5.953-6.78 10.39-13.152 10.39Zm0 0"/>
  </g>
  <g clip-path="url(#c)">
    <path fill="#F0EBE1" d="M557.121 401.2c-1.883 0-3.71.241-5.45.695l3.485 7.484c.64-.094 1.297-.145 1.965-.145 7.457 0 13.524 6.075 13.524 13.54 0 7.468-6.067 13.542-13.524 13.542-7.46 0-13.527-6.074-13.527-13.543 0-4.015 1.758-7.632 4.547-10.113l-3.485-7.484c-5.5 3.91-9.093 10.332-9.093 17.597 0 11.918 9.652 21.579 21.554 21.579 11.906 0 21.559-9.66 21.559-21.579 0-11.914-9.653-21.574-21.555-21.574Zm0 0"/>
  </g>
  <g clip-path="url(#d)">
    <path fill="#F0EBE1" d="m556.117 425.523 3.75-1.746-11.644-25.02-14.79-31.769a2.074 2.074 0 0 0-2.41-1.125l-11.418 3.067 1.07 4 9.743-2.618 3.25 6.981c-4.863.082-31.203 1.102-36.836 13.582h-19.516l-8.683-4.43a17.084 17.084 0 0 0-6.508-1.812l-14.031-1.008a4.153 4.153 0 0 0-4.012 2.29l-.543 1.089a4.491 4.491 0 0 0-.238 3.402l.043.133-11.637 10.547 1.563 1.726 11.156-10.109 21.347 2.856.27.035.566.992-13.93 22.223h4.942l11.352-18.11.71 1.235 9.692 16.875.723 1.257H446.59v4.606h36.148l.598 1.031c.043.078.09.149.137.223a10.651 10.651 0 0 0 9.105 5.133h26.797l14.055-28.926h-15.903v-1.278h16.524l.957-1.972h-24.39v-1.278h25.577l6.203-1.554 2.137 4.586Zm0 0"/>
  </g>
  <path fill="#F0EBE1" d="M550.824 389.523c3.906 0 3.906-14.16 0-14.16a7.076 7.076 0 0 0-7.074 7.078 7.077 7.077 0 0 0 7.074 7.082Zm0 0"/>
  <g clip-path="url(#e)">
    <path fill="#F0EBE1" d="M238.824 415.277h-5.25c-2.625 0-2.625 1.727-2.625 2.637v18.445c0 .91 0 2.633 2.625 2.633h5.25Zm0 0"/>
  </g>
  <path fill="#F0EBE1" d="M257.2 420.547h26.25v10.543H257.2Zm0 0"/>
  <g clip-path="url(#f)">
    <path fill="#F0EBE1" d="M307.074 415.277h-5.25v23.715h5.25c2.625 0 2.625-1.722 2.625-2.633v-18.445c0-.91 0-2.637-2.625-2.637Zm0 0"/>
  </g>
  <g clip-path="url(#g)">
    <path fill="#F0EBE1" d="M254.574 421.207v-11.2c0-.91 0-2.632-2.625-2.632h-7.875c-2.625 0-2.625 1.723-2.625 2.633v31.62c0 .911 0 2.634 2.625 2.634h7.875c2.625 0 2.625-1.723 2.625-2.633Zm0 0"/>
  </g>
  <g clip-path="url(#h)">
    <path fill="#F0EBE1" d="M299.2 437.676v-27.668c0-.91 0-2.633-2.626-2.633h-8.086c-2.414 0-2.414 1.723-2.414 2.633v31.62c0 .911 0 2.634 2.414 2.634h8.086c2.625 0 2.625-1.723 2.625-2.633Zm0 0"/>
  </g>
</svg>